<?xml version="1.0" standalone="no"?>
<!DOCTYPE svg PUBLIC "-//W3C//DTD SVG 20010904//EN"
 "http://www.w3.org/TR/2001/REC-SVG-20010904/DTD/svg10.dtd">
<svg version="1.0" xmlns="http://www.w3.org/2000/svg"
 width="474.000000pt" height="266.000000pt" viewBox="0 0 474.000000 266.000000"
 preserveAspectRatio="xMidYMid meet">
<metadata>
Created by potrace 1.16, written by Peter Selinger 2001-2019
</metadata>
<g transform="translate(0.000000,266.000000) scale(0.100000,-0.100000)"
fill="#000000" stroke="none">
<path d="M2897 2363 c-3 -5 -8 -23 -12 -40 -7 -36 -28 -53 -55 -46 -33 9 -34
-19 -1 -44 19 -15 31 -33 31 -49 0 -29 13 -30 50 -4 l28 20 31 -26 c28 -23 32
-24 38 -9 3 10 0 33 -7 53 -11 32 -11 36 10 52 28 21 19 40 -20 40 -23 0 -33
7 -45 30 -15 28 -38 39 -48 23z"/>
<path d="M1935 2321 c-33 -14 -56 -47 -62 -88 -7 -53 40 -118 96 -133 104 -28
164 66 111 171 -28 53 -86 74 -145 50z"/>
<path d="M3720 2296 c-52 -14 -116 -50 -129 -73 -5 -9 -26 -17 -53 -19 -113
-10 -194 -88 -154 -148 17 -26 91 -66 123 -66 15 0 28 -14 45 -47 18 -35 42
-60 88 -90 64 -44 96 -51 205 -43 63 4 176 91 197 151 8 23 16 29 38 29 39 0
76 33 88 79 9 36 7 43 -14 66 -27 29 -63 45 -105 45 -23 0 -36 10 -65 50 -22
30 -50 57 -71 65 -42 18 -131 18 -193 1z m185 -30 c20 -9 47 -37 73 -76 36
-53 42 -70 42 -115 0 -44 -3 -53 -20 -58 -11 -3 -114 -4 -228 -4 l-207 2 1 55
c2 72 26 113 94 162 80 55 165 67 245 34z m-363 -106 c-2 -7 -6 -42 -9 -78
l-6 -64 -36 6 c-23 3 -46 17 -64 37 l-29 31 33 34 c44 46 119 68 111 34z m458
-194 c0 -23 -49 -74 -97 -103 -36 -21 -58 -26 -112 -27 -60 0 -75 4 -126 34
-49 30 -95 78 -95 102 0 3 97 7 215 7 178 0 215 -2 215 -13z"/>
<path d="M2453 1918 c-15 -65 -18 -97 -11 -105 6 -7 14 -11 18 -8 4 3 38 6 74
7 74 2 80 10 46 59 -12 15 -33 52 -48 81 -42 81 -55 75 -79 -34z"/>
<path d="M1698 1936 c-19 -29 -29 -36 -55 -36 -38 0 -44 -19 -12 -38 16 -10
19 -19 14 -43 -6 -25 -4 -29 14 -29 12 0 30 5 41 12 16 11 23 8 48 -15 15 -15
31 -27 35 -27 4 0 7 17 7 37 0 24 8 45 22 60 25 27 21 33 -24 42 -26 5 -34 13
-38 36 -7 41 -26 42 -52 1z"/>
<path d="M2723 1917 c-53 -57 -76 -94 -70 -109 2 -7 22 -19 43 -27 22 -7 47
-20 56 -29 16 -13 18 -13 23 0 11 29 10 201 -1 205 -6 2 -29 -16 -51 -40z"/>
<path d="M1280 1905 c0 -10 -7 -15 -17 -13 -12 2 -18 -3 -18 -17 0 -11 -8 -21
-18 -23 -21 -4 -21 -7 -2 -36 11 -16 22 -22 35 -19 15 4 20 0 20 -16 0 -12 6
-21 15 -21 8 0 15 7 15 15 0 11 7 14 25 9 25 -6 35 8 15 21 -18 11 -10 24 17
27 39 4 42 28 3 28 -27 0 -30 2 -20 19 14 28 13 33 -9 26 -11 -3 -22 -1 -26 5
-10 16 -35 12 -35 -5z"/>
<path d="M4332 1885 c-17 -27 -29 -35 -52 -35 -39 0 -47 -17 -21 -44 13 -14
21 -35 21 -59 0 -41 9 -45 45 -21 23 15 26 14 54 -5 36 -26 54 -27 47 -3 -18
61 -17 67 14 84 16 9 30 22 30 28 0 11 -7 14 -52 24 -19 4 -28 14 -33 36 -9
39 -25 38 -53 -5z"/>
<path d="M2210 1877 c0 -7 7 -36 16 -63 38 -120 40 -121 99 -74 21 17 43 30
50 30 7 0 15 7 19 15 3 8 2 15 -3 15 -4 0 -39 20 -77 45 -70 45 -104 56 -104
32z"/>
<path d="M2895 1789 c-94 -51 -98 -59 -54 -106 20 -21 39 -47 43 -57 6 -18 8
-18 23 -4 26 26 80 186 66 198 -4 4 -39 -10 -78 -31z"/>
<path d="M872 1733 c-1 -18 -6 -33 -11 -33 -5 0 -6 -21 -3 -46 3 -34 2 -45 -7
-40 -6 4 -11 2 -11 -4 0 -6 -4 -9 -9 -6 -14 9 0 -77 16 -92 7 -7 13 -18 13
-23 0 -6 -11 1 -24 15 -13 15 -26 26 -30 26 -3 0 -6 -18 -6 -41 0 -36 -2 -40
-20 -34 -22 7 -27 -9 -7 -22 12 -8 19 -73 7 -73 -4 0 -11 10 -17 22 -6 15 -12
18 -17 10 -4 -7 4 -24 21 -40 19 -19 28 -40 29 -62 l1 -33 -14 26 c-18 36 -23
34 -21 -8 1 -37 37 -82 45 -57 4 10 8 10 19 1 20 -17 17 -26 -11 -31 -14 -3
-25 -1 -25 5 0 6 -3 7 -7 3 -4 -3 -13 4 -20 16 l-12 23 -1 -23 c0 -12 -7 -25
-15 -28 -8 -4 -15 -11 -15 -18 0 -15 57 -49 69 -41 5 3 12 1 16 -5 4 -6 -6
-10 -24 -10 -39 0 -40 -18 -2 -31 19 -7 28 -16 24 -25 -4 -10 -10 -11 -24 -3
-13 7 -19 6 -19 -1 0 -6 8 -14 18 -17 9 -4 22 -13 28 -21 8 -12 15 -12 32 -3
18 10 21 9 15 -5 -3 -9 -16 -27 -28 -40 -16 -18 -24 -21 -33 -12 -7 7 -12 9
-12 4 0 -4 -8 0 -17 10 -16 15 -17 15 -24 -2 -4 -11 -8 -14 -8 -7 -1 7 -8 10
-16 7 -8 -4 -17 1 -21 10 -3 9 -10 13 -16 10 -5 -3 -12 3 -15 15 -3 11 -9 18
-14 15 -5 -3 -9 0 -9 7 0 8 -3 9 -13 0 -16 -13 -27 -5 -27 21 0 10 -5 18 -12
18 -6 0 -4 7 5 18 20 22 24 53 5 34 -10 -10 -15 -4 -24 25 l-12 38 -1 -37 c-1
-29 -4 -36 -16 -32 -19 8 -19 -10 0 -26 8 -7 12 -16 9 -21 -3 -5 0 -9 6 -9 7
0 10 -6 7 -12 -2 -7 -11 -12 -20 -10 -26 4 -9 -26 22 -43 29 -15 57 -80 39
-91 -5 -4 -8 -17 -5 -30 2 -13 0 -24 -4 -24 -5 0 -9 6 -9 13 0 8 -3 8 -9 -2
-5 -8 -6 -24 -2 -35 4 -12 6 -29 4 -38 -4 -15 -8 -15 -24 -5 -23 15 -25 27 -2
27 21 0 14 7 -12 12 -25 4 -45 22 -45 41 0 20 -29 30 -46 16 -11 -9 -14 -8
-14 4 0 8 9 17 20 20 20 5 28 27 10 27 -5 0 -10 7 -10 15 0 8 -4 15 -10 15 -5
0 -10 7 -10 15 0 9 -9 15 -24 15 -43 0 -77 -19 -89 -50 -14 -37 -27 -38 -67
-3 -23 19 -34 23 -39 14 -10 -15 -59 2 -67 24 -4 10 -13 13 -27 9 -15 -5 -19
-3 -14 9 4 12 2 14 -10 10 -13 -5 -15 -2 -10 11 5 13 3 17 -7 13 -10 -4 -13
-1 -10 7 3 8 1 17 -5 21 -6 3 -11 -1 -11 -10 0 -9 -6 -15 -13 -14 -6 1 -20 -1
-30 -5 -16 -8 -17 -42 -17 -512 l0 -504 2370 0 2370 0 0 420 c0 273 -3 420
-10 420 -5 0 -10 -4 -10 -9 0 -5 -9 -11 -19 -14 -17 -4 -19 -1 -14 29 7 42 -8
44 -25 5 -15 -34 -64 -71 -70 -53 -2 7 -10 12 -18 12 -8 0 -14 5 -14 10 0 6
16 10 36 10 21 0 33 4 29 10 -3 6 8 27 24 48 31 37 25 58 -8 28 -47 -43 -62 1
-15 45 13 12 24 30 24 38 0 13 -2 13 -9 2 -5 -8 -16 -11 -28 -7 -28 9 -60 45
-48 54 6 4 11 14 13 24 2 12 -3 15 -20 11 l-23 -6 22 25 c26 28 30 43 9 35
-11 -5 -13 1 -9 27 3 20 1 36 -6 40 -7 5 -11 -1 -11 -14 0 -12 -4 -18 -10 -15
-5 3 -10 0 -10 -9 0 -8 5 -16 12 -18 6 -2 8 -10 4 -17 -5 -7 -15 -10 -23 -6
-13 5 -14 3 -3 -11 12 -13 11 -17 -1 -25 -8 -5 -16 -9 -19 -9 -8 0 -5 -64 4
-78 5 -8 4 -18 -3 -25 -8 -8 -18 -4 -36 13 -18 17 -25 20 -25 8 0 -8 11 -25
25 -38 26 -24 32 -40 16 -40 -5 0 -12 8 -16 18 -7 20 -55 58 -55 42 0 -5 9
-18 20 -27 22 -19 27 -43 9 -43 -7 0 -18 8 -26 18 -13 16 -14 15 -8 -5 4 -14
-1 -28 -15 -41 -14 -13 -18 -22 -11 -27 6 -3 11 -3 11 0 0 3 18 -11 41 -32 22
-21 35 -39 29 -41 -6 -2 -25 8 -41 24 -30 29 -39 23 -14 -10 37 -49 5 -48 -42
0 -28 29 -37 34 -44 23 -6 -9 -9 -10 -9 -2 0 6 5 15 11 18 6 4 8 13 5 20 -2 7
4 21 14 30 14 13 19 13 23 3 2 -7 8 -10 12 -6 4 4 2 15 -5 23 -12 15 -14 15
-22 1 -11 -20 -32 -21 -24 -1 4 10 -1 15 -14 15 -16 0 -18 -4 -10 -24 11 -30
4 -37 -26 -30 -22 6 -24 3 -24 -28 0 -19 7 -43 15 -54 19 -25 19 -35 0 -28 -9
4 -15 0 -15 -7 0 -8 -11 -2 -25 14 -27 31 -35 33 -35 12 0 -8 -4 -15 -10 -15
-5 0 -10 -10 -10 -22 -1 -21 -2 -22 -14 -6 -15 20 -26 14 -26 -14 0 -23 -16
-23 -25 0 -6 16 -7 16 -17 -2 -8 -14 -7 -21 3 -27 8 -5 12 -9 9 -10 -3 0 -15
-2 -27 -5 -14 -2 -23 1 -23 8 0 22 -18 -6 -25 -39 -4 -19 -3 -33 3 -33 10 0
24 -41 17 -48 -2 -3 -12 3 -21 12 -9 9 -21 15 -27 13 -6 -2 -19 5 -30 16 -10
10 -25 16 -34 13 -11 -5 -13 -2 -9 9 6 16 -13 55 -26 55 -15 0 -44 -36 -40
-49 2 -7 -4 -21 -14 -32 -9 -10 -13 -19 -8 -19 5 0 3 -4 -5 -9 -18 -12 -7 -39
21 -50 l22 -8 -24 -6 c-14 -4 -27 -1 -31 5 -6 9 -11 9 -21 0 -17 -14 -33 -3
-33 23 1 11 -4 23 -9 27 -15 11 -36 -3 -36 -24 0 -14 -5 -18 -15 -14 -10 4
-15 -1 -15 -14 0 -11 -7 -20 -15 -20 -8 0 -15 5 -15 10 0 21 -16 9 -29 -22
-10 -25 -15 -29 -18 -16 -6 24 -20 23 -28 -3 -9 -27 -29 -19 -33 14 -4 35 -17
34 -32 -3 -15 -36 -17 -36 -41 -7 -16 19 -18 20 -19 4 0 -9 -12 -23 -27 -30
-16 -6 -30 -15 -33 -19 -3 -4 -18 -12 -34 -17 -15 -6 -30 -20 -33 -31 -6 -24
-19 -26 -27 -3 -6 14 -9 13 -23 -7 -9 -13 -17 -33 -18 -44 -2 -22 -11 -23 -57
-11 -22 5 -28 4 -28 -8 0 -18 -27 -30 -36 -16 -4 7 -10 6 -19 -1 -9 -8 -17 -4
-30 16 -16 24 -18 25 -35 9 -10 -9 -24 -18 -32 -19 -7 -1 -30 -8 -51 -15 -44
-15 -75 -8 -58 13 6 7 8 16 4 19 -13 14 -23 6 -31 -25 -9 -34 -42 -52 -42 -23
0 8 -8 19 -17 22 -10 4 -21 11 -24 16 -13 18 -29 -4 -23 -30 5 -18 3 -24 -5
-19 -6 4 -11 16 -11 27 0 24 -20 26 -20 2 -1 -34 -24 -50 -85 -58 -120 -15
-131 -15 -169 5 -38 19 -87 18 -112 -2 -6 -4 -19 -6 -28 -2 -9 3 -23 1 -31 -6
-8 -6 -18 -9 -23 -7 -10 7 -90 -28 -114 -49 -17 -16 -58 -11 -58 7 0 6 -5 7
-10 4 -6 -4 -8 -11 -5 -16 4 -5 1 -9 -4 -9 -6 0 -11 5 -11 10 0 6 -6 10 -12
10 -7 0 -14 12 -15 26 0 15 -8 34 -18 43 -15 15 -17 15 -31 -4 -8 -11 -13 -27
-11 -36 3 -9 -4 -24 -14 -33 -18 -15 -23 -34 -21 -83 1 -18 -4 -23 -25 -23
-22 0 -25 4 -21 25 6 31 -9 33 -21 3 -5 -13 -19 -32 -31 -43 l-23 -20 7 27 c3
15 2 30 -4 33 -8 5 -7 11 0 20 7 8 8 20 4 27 -5 7 -9 16 -9 20 0 18 -15 18
-15 0 0 -12 -4 -22 -10 -22 -5 0 -10 9 -10 20 0 22 -16 27 -23 8 -3 -10 -7
-10 -20 1 -13 10 -14 17 -6 33 11 20 -1 37 -24 38 -5 0 -6 4 -2 9 3 6 -1 25
-9 43 -12 28 -14 29 -15 11 -1 -13 -6 -23 -12 -23 -6 0 -8 -9 -4 -20 4 -11 3
-20 -2 -19 -23 5 -70 -24 -81 -51 -14 -32 -32 -32 -32 0 0 10 -5 22 -10 25 -8
5 -7 11 1 21 6 8 9 18 5 21 -4 4 -12 1 -17 -7 -9 -13 -10 -13 -6 1 3 9 2 22
-3 29 -12 20 -32 1 -27 -26 2 -13 0 -24 -4 -24 -5 0 -9 10 -10 23 -1 18 -2 17
-9 -7 -16 -52 -33 -50 -50 7 -16 51 -17 51 -24 22 -11 -48 -31 -68 -59 -61
-20 5 -24 12 -23 38 2 36 -12 58 -32 51 -7 -3 -12 0 -10 8 2 8 -3 13 -9 12
-22 -5 -14 14 7 20 11 3 20 9 19 14 -4 24 4 35 36 49 42 17 48 39 8 30 -27 -6
-27 -6 -9 9 11 8 23 15 27 15 4 0 20 5 35 10 25 10 26 12 10 23 -16 12 -16 14
-2 26 17 15 22 36 6 26 -12 -8 -12 -8 -1 33 5 17 6 32 1 32 -5 0 -11 -13 -15
-30 -6 -29 -25 -52 -25 -31 0 6 -5 11 -10 11 -6 0 -8 -11 -4 -27 6 -22 4 -25
-10 -20 -10 4 -24 0 -33 -9 -24 -24 -26 -10 -3 30 25 46 25 54 1 32 -21 -19
-43 -14 -35 8 3 8 1 17 -5 21 -7 3 -11 -2 -11 -14 0 -12 -4 -21 -9 -21 -5 0
-7 -9 -4 -20 6 -21 -12 -28 -20 -7 -2 6 -7 9 -11 5 -4 -3 -2 -16 4 -28 9 -16
8 -25 -1 -37 -12 -13 -14 -13 -25 2 -7 9 -10 24 -6 33 5 15 4 16 -13 2 -17
-13 -18 -13 -13 1 4 9 -2 20 -13 27 -15 9 -20 8 -27 -5 -6 -9 -17 -18 -26 -19
-20 -3 -20 3 0 23 13 13 13 17 2 24 -9 6 -9 9 -1 9 6 0 14 9 18 19 3 10 15 21
26 24 12 3 18 10 15 16 -4 6 -13 8 -21 4 -11 -4 -13 -1 -9 11 6 16 11 18 37
20 6 0 26 15 44 32 17 17 43 34 57 38 14 3 26 11 26 17 0 6 -7 9 -14 6 -19 -7
-9 23 12 39 11 8 12 13 3 18 -8 5 -8 13 0 27 6 12 8 23 5 26 -3 3 -10 -6 -16
-21 -6 -16 -14 -24 -21 -20 -7 4 -19 -2 -28 -13 -17 -21 -71 -47 -71 -35 0 4
7 18 16 30 9 13 11 22 4 22 -6 0 -8 11 -5 28 5 25 5 26 -5 4 -5 -13 -14 -20
-20 -17 -5 3 -10 -1 -10 -10 0 -12 -6 -14 -26 -9 -24 6 -25 5 -15 -14 14 -26
14 -32 1 -32 -5 0 -10 7 -10 15 0 9 -10 19 -22 24 l-22 8 21 11 c11 6 23 8 27
4 4 -3 4 1 0 11 -3 9 -11 17 -18 17 -6 1 1 8 17 16 15 8 27 19 27 25 0 6 -5 7
-10 4 -7 -4 -9 9 -5 37 l5 43 -12 -32 c-16 -39 -28 -52 -28 -30 0 9 -7 17 -15
17 -8 0 -15 5 -15 10 0 6 7 13 15 16 8 4 15 13 15 21 0 8 -5 11 -10 8 -5 -3
-10 1 -10 9 0 9 8 16 19 16 11 0 22 4 25 9 10 16 -5 41 -25 41 -10 0 -19 5
-19 11 0 5 -4 8 -9 5 -5 -3 -7 -25 -4 -48 5 -30 3 -39 -6 -34 -6 4 -9 12 -6
17 10 15 -29 10 -53 -7 -12 -8 -22 -12 -22 -8 0 3 -7 1 -15 -6 -18 -15 -28 -8
-32 23 -2 13 0 17 5 10 8 -13 49 -12 71 2 11 6 10 10 -3 17 -11 6 -21 6 -29
-1 -8 -6 -18 -6 -27 -1 -11 7 -6 13 23 25 39 16 42 35 5 35 -19 0 -18 13 0 16
34 7 54 21 71 50 11 19 16 34 11 34 -6 0 -10 -4 -10 -10 0 -5 -8 -10 -17 -10
-10 0 -31 -7 -47 -15 -15 -8 -30 -15 -33 -15 -12 0 13 77 29 88 10 7 18 21 18
30 0 9 7 30 15 46 13 25 13 28 -1 22 -13 -5 -16 0 -12 29 3 24 0 35 -9 35 -7
0 -13 5 -13 10 0 6 8 10 18 10 10 0 29 12 43 26 l24 27 -27 -5 c-26 -5 -27 -3
-21 21 3 14 12 30 20 34 18 11 17 30 -3 23 -8 -3 -13 -2 -10 2 11 18 17 114 6
107 -5 -3 -10 -19 -10 -35 0 -38 -9 -60 -26 -60 -17 0 -18 -12 -3 -27 13 -13
-5 -53 -23 -53 -7 0 -9 -13 -5 -35 5 -31 -5 -56 -16 -38 -2 5 -2 2 0 -5 1 -8
3 -21 3 -29 0 -13 3 -13 15 -3 9 7 19 10 22 6 7 -7 -14 -26 -29 -26 -4 0 -16
10 -27 21 -12 13 -26 19 -35 16 -9 -4 -16 -2 -16 3 0 6 5 10 10 10 6 0 10 5
10 10 0 6 -12 10 -26 10 -20 0 -24 -4 -19 -19 3 -11 2 -22 -4 -25 -5 -3 -12 6
-16 21 -7 31 8 44 43 38 13 -2 33 1 43 8 16 10 18 19 13 55 -4 27 -2 47 6 57
20 24 -5 17 -26 -6 -13 -15 -15 -23 -7 -26 12 -4 7 -33 -7 -33 -17 0 -6 52 17
76 26 29 24 45 -4 23 -15 -13 -16 -12 -9 6 12 29 12 40 1 42 -5 2 -13 31 -16
65 -3 35 -6 48 -7 31z"/>
<path d="M2403 1734 c-83 -34 -162 -119 -188 -201 -25 -80 -24 -183 3 -268 57
-182 244 -268 445 -205 62 19 80 31 133 84 52 53 63 70 79 129 38 140 0 288
-99 389 -68 68 -124 92 -226 95 -72 2 -95 -2 -147 -23z m267 -23 c151 -83 221
-265 170 -446 -8 -28 -32 -60 -79 -106 -76 -75 -114 -89 -240 -89 -84 0 -150
30 -214 99 -58 62 -72 109 -72 241 1 94 3 110 27 156 28 54 105 125 154 145
71 27 203 27 254 0z"/>
<path d="M2015 1680 c-13 -21 104 -130 139 -130 8 0 17 9 21 19 3 11 17 36 31
56 18 26 22 41 15 49 -14 16 -197 21 -206 6z"/>
<path d="M1434 1546 c-21 -18 -56 -39 -77 -47 -22 -7 -43 -22 -48 -31 -16 -30
24 -87 63 -88 10 0 19 -11 23 -28 22 -102 139 -160 239 -118 33 14 96 81 96
103 0 7 16 28 35 47 55 55 43 96 -33 116 -24 6 -46 18 -49 26 -11 29 -79 54
-146 54 -57 0 -67 -3 -103 -34z m181 -11 c54 -34 95 -101 78 -127 -6 -12 -217
-10 -247 2 -39 15 -36 67 7 107 17 17 39 33 47 36 21 8 91 -3 115 -18z m85
-177 c0 -7 -12 -29 -26 -50 -34 -48 -74 -62 -141 -48 -55 12 -88 39 -98 83
l-7 27 136 0 c99 0 136 -3 136 -12z"/>
<path d="M2051 1474 c-46 -18 -88 -37 -93 -42 -16 -16 28 -42 107 -63 42 -11
80 -18 83 -15 7 8 3 139 -6 147 -4 3 -45 -9 -91 -27z"/>
<path d="M2935 1408 c-3 -13 -2 -46 2 -73 7 -41 12 -49 28 -47 37 7 156 65
152 75 -2 6 -34 21 -73 33 -38 12 -77 25 -86 29 -13 5 -19 1 -23 -17z"/>
<path d="M2084 1308 c-68 -51 -106 -89 -100 -103 7 -20 184 -22 191 -2 7 19
-31 122 -46 125 -8 1 -28 -8 -45 -20z"/>
<path d="M3554 1211 c-68 -41 -82 -104 -41 -182 58 -110 229 -123 257 -20 12
46 4 116 -17 149 -17 27 -106 72 -143 72 -14 0 -39 -9 -56 -19z m48 -38 c20
-18 23 -44 8 -59 -16 -16 -1 -44 28 -55 31 -12 59 10 64 49 4 35 25 39 32 5
13 -58 13 -69 4 -93 l-9 -25 -20 24 c-14 17 -26 22 -46 18 -15 -3 -36 -1 -46
5 -10 5 -32 10 -48 10 -53 2 -62 66 -16 116 25 26 25 27 49 5z"/>
<path d="M2122 1102 c-56 -85 -64 -112 -32 -112 32 0 149 57 157 76 8 20 -39
108 -59 112 -8 2 -36 -31 -66 -76z"/>
<path d="M2801 1100 c-51 -47 -49 -51 37 -107 54 -34 90 -40 83 -12 -30 120
-45 159 -60 159 -9 -1 -36 -19 -60 -40z"/>
<path d="M2293 1068 c-10 -13 -43 -144 -43 -171 0 -8 6 -20 13 -26 28 -22 136
88 137 139 0 20 -9 29 -43 44 -23 11 -45 21 -48 23 -3 2 -10 -2 -16 -9z"/>
<path d="M2653 1003 c-24 -8 -43 -20 -43 -26 0 -22 91 -148 103 -144 8 2 13
36 15 95 3 104 4 103 -75 75z"/>
<path d="M1483 942 c-27 -3 -33 -7 -33 -28 0 -22 -2 -23 -21 -14 -11 7 -28 9
-37 5 -15 -6 -15 -8 2 -21 11 -8 16 -14 10 -15 -5 -1 -18 -2 -28 -3 -31 -2
-30 -25 1 -32 15 -4 43 -20 61 -36 35 -30 52 -29 52 3 0 17 3 18 21 9 30 -17
36 -4 10 24 l-22 23 42 17 c41 17 41 17 23 37 -26 28 -43 35 -81 31z"/>
<path d="M1898 869 c-26 -29 -28 -30 -67 -18 -23 7 -44 9 -48 6 -3 -4 -1 -24
6 -44 9 -29 10 -45 1 -67 -15 -41 0 -54 43 -37 61 24 62 24 91 -19 35 -52 52
-48 48 12 -4 44 -2 46 27 53 44 9 42 40 -3 55 -30 10 -35 16 -38 48 -4 47 -24
50 -60 11z"/>
<path d="M3367 854 c-3 -4 -2 -15 3 -25 8 -15 6 -18 -17 -21 -26 -3 -26 -4 -9
-21 15 -15 16 -20 5 -34 -12 -14 -10 -15 17 -9 27 6 32 4 37 -15 4 -15 11 -20
23 -15 9 3 23 1 31 -5 22 -19 28 -1 9 31 -17 30 -17 30 7 30 37 0 51 23 27 45
-10 9 -26 15 -35 12 -9 -4 -15 -1 -15 9 0 20 -30 30 -40 14 -7 -11 -12 -11
-23 -2 -7 7 -17 9 -20 6z"/>
<path d="M3054 644 c-18 -34 -21 -36 -61 -30 -49 6 -54 -4 -27 -56 15 -29 15
-34 0 -59 -9 -15 -16 -32 -16 -37 0 -19 40 -24 64 -8 22 14 26 13 57 -15 49
-44 63 -39 56 20 -6 48 -5 50 29 70 50 30 47 41 -18 55 -24 5 -28 12 -28 39 0
30 -14 57 -30 57 -4 0 -15 -16 -26 -36z"/>
<path d="M2425 520 c-3 -5 -1 -19 6 -31 10 -20 9 -21 -10 -16 -17 4 -24 0 -30
-16 -8 -20 -5 -23 28 -27 30 -4 36 -9 34 -27 -2 -15 3 -23 12 -23 8 0 15 5 15
11 0 6 9 8 21 4 17 -6 20 -3 17 12 -3 12 6 23 27 33 33 17 46 56 21 66 -8 3
-24 1 -35 -6 -18 -9 -21 -8 -21 10 0 11 -7 20 -15 20 -8 0 -15 -9 -15 -20 0
-11 -4 -20 -9 -20 -5 0 -13 9 -16 20 -7 22 -20 26 -30 10z"/>
</g>
</svg>
